<svg xmlns="http://www.w3.org/2000/svg" xmlns:xlink="http://www.w3.org/1999/xlink" width="345" zoomAndPan="magnify" viewBox="0 0 258.75 233.999995" height="312" preserveAspectRatio="xMidYMid meet" version="1.0"><defs><clipPath id="e9c95a4b64"><path d="M 13.78125 16.992188 L 146.089844 16.992188 L 146.089844 213.839844 L 13.78125 213.839844 Z M 13.78125 16.992188 " clip-rule="nonzero"/></clipPath><clipPath id="8b3049c0d7"><path d="M 13.472656 51 L 146.664062 51 L 146.664062 213.988281 L 13.472656 213.988281 Z M 13.472656 51 " clip-rule="nonzero"/></clipPath><clipPath id="060823ffba"><path d="M 141.390625 100.542969 L 104.851562 100.542969 C 103.742188 92.8125 101.019531 87.359375 96.679688 84.191406 C 92.339844 81.019531 86.019531 79.429688 77.722656 79.429688 C 70.699219 79.429688 65.261719 80.769531 61.390625 83.441406 C 57.519531 86.109375 55.582031 89.839844 55.582031 94.601562 C 55.582031 100.152344 57.789062 104.019531 62.222656 106.199219 C 66.652344 108.382812 74.582031 110.761719 86.03125 113.339844 C 88.0625 113.742188 89.53125 114.03125 90.460938 114.230469 C 97.101562 115.621094 102.402344 116.859375 106.378906 117.949219 C 110.359375 119.042969 115.191406 120.832031 120.910156 123.300781 C 126.628906 125.769531 131.0625 128.550781 134.199219 131.632812 C 137.339844 134.710938 140.101562 138.820312 142.5 143.972656 C 144.902344 149.121094 146.101562 155.070312 146.101562 161.8125 C 146.101562 177.871094 140.289062 190.550781 128.660156 199.871094 C 117.03125 209.191406 101.070312 213.851562 80.769531 213.851562 C 61.390625 213.851562 45.429688 209.390625 32.882812 200.472656 C 20.332031 191.550781 13.960938 177.859375 13.78125 159.421875 L 51.152344 159.421875 C 52.441406 176.472656 62.589844 184.992188 81.601562 184.992188 C 89.53125 184.992188 95.859375 183.261719 100.5625 179.789062 C 105.261719 176.320312 107.621094 171.722656 107.621094 165.960938 C 107.621094 160.199219 105.5 156.152344 101.25 153.769531 C 97 151.390625 89.160156 148.820312 77.722656 146.039062 L 75.511719 145.449219 C 74.222656 145.0625 71.359375 144.359375 66.929688 143.371094 C 62.5 142.382812 59.410156 141.640625 57.660156 141.140625 C 55.910156 140.640625 53.050781 139.800781 49.082031 138.609375 C 45.109375 137.421875 42.199219 136.28125 40.359375 135.191406 C 38.519531 134.101562 36.070312 132.710938 33.019531 131.03125 C 29.972656 129.351562 27.710938 127.511719 26.242188 125.53125 C 24.769531 123.550781 23.152344 121.222656 21.390625 118.542969 C 19.632812 115.859375 18.441406 112.839844 17.789062 109.472656 C 17.140625 106.101562 16.820312 102.441406 16.820312 98.472656 C 16.820312 83.410156 22.261719 71.8125 33.152344 63.679688 C 44.039062 55.550781 59.449219 51.480469 79.378906 51.480469 C 97.28125 51.480469 111.949219 55.453125 123.390625 63.371094 C 134.832031 71.292969 140.832031 83.691406 141.378906 100.542969 " clip-rule="nonzero"/></clipPath><clipPath id="fdff1f5c5f"><path d="M 140.101562 114.605469 L 244 114.605469 L 244 213.988281 L 140.101562 213.988281 Z M 140.101562 114.605469 " clip-rule="nonzero"/></clipPath><clipPath id="18dcbe9fef"><path d="M 184.710938 114.960938 L 243.910156 213.832031 L 196.300781 213.832031 L 156.992188 145.742188 L 140.941406 115.410156 Z M 184.710938 114.960938 " clip-rule="nonzero"/></clipPath><clipPath id="f7ca5873af"><path d="M 140.101562 16.839844 L 244 16.839844 L 244 115.414062 L 140.101562 115.414062 Z M 140.101562 16.839844 " clip-rule="nonzero"/></clipPath><clipPath id="10b560915d"><path d="M 184.710938 114.960938 L 243.910156 16.992188 L 196.300781 16.992188 L 156.992188 85.082031 L 140.941406 115.410156 Z M 184.710938 114.960938 " clip-rule="nonzero"/></clipPath><clipPath id="d781d9ee7e"><path d="M 141.839844 109.871094 L 184.09375 109.871094 L 184.09375 120.957031 L 141.839844 120.957031 Z M 141.839844 109.871094 " clip-rule="nonzero"/></clipPath></defs><g clip-path="url(#e9c95a4b64)"><path fill="#3cb982" d="M 8.78125 11.992188 L 248.90625 11.992188 L 248.90625 218.835938 L 8.78125 218.835938 Z M 8.78125 11.992188 " fill-opacity="1" fill-rule="nonzero"/></g><g clip-path="url(#8b3049c0d7)"><g clip-path="url(#060823ffba)"><path fill="#231f20" d="M 8.78125 11.992188 L 248.90625 11.992188 L 248.90625 218.835938 L 8.78125 218.835938 Z M 8.78125 11.992188 " fill-opacity="1" fill-rule="nonzero"/></g></g><g clip-path="url(#fdff1f5c5f)"><g clip-path="url(#18dcbe9fef)"><path fill="#3cb982" d="M 8.78125 11.992188 L 248.90625 11.992188 L 248.90625 218.835938 L 8.78125 218.835938 Z M 8.78125 11.992188 " fill-opacity="1" fill-rule="nonzero"/></g></g><g clip-path="url(#f7ca5873af)"><g clip-path="url(#10b560915d)"><path fill="#3cb982" d="M 8.78125 11.992188 L 248.90625 11.992188 L 248.90625 218.835938 L 8.78125 218.835938 Z M 8.78125 11.992188 " fill-opacity="1" fill-rule="nonzero"/></g></g><g clip-path="url(#d781d9ee7e)"><path fill="#3cb982" d="M 141.839844 109.871094 L 184.09375 109.871094 L 184.09375 120.957031 L 141.839844 120.957031 Z M 141.839844 109.871094 " fill-opacity="1" fill-rule="nonzero"/></g></svg>